<?xml version="1.0" standalone="no"?><!DOCTYPE svg PUBLIC "-//W3C//DTD SVG 1.1//EN" "http://www.w3.org/Graphics/SVG/1.1/DTD/svg11.dtd"><svg t="1642993184674" class="icon" viewBox="0 0 1024 1024" version="1.1" xmlns="http://www.w3.org/2000/svg" p-id="5785" xmlns:xlink="http://www.w3.org/1999/xlink" width="48" height="48"><defs><style type="text/css"></style></defs><path d="M0 0h1024v1024H0z" fill="#E30000" p-id="5786"></path><path d="M653.552 147.68c22.816 5.6 44.208 15.952 62.752 30.384 7.024 4.928 12.544 11.712 15.984 19.584 5.008 12.224 3.68 26.144-3.6 37.184a39.952 39.952 0 0 1-54.752 12.384c-4.384-2.8-7.584-6.8-11.984-9.2a72.32 72.32 0 0 0-39.968-13.184 39.952 39.952 0 0 0-25.568 13.184 28.384 28.384 0 0 0-7.6 25.6l14.784 55.552c35.52 1.36 70.112 11.52 100.704 29.584a287.36 287.36 0 0 1 77.12 69.152 239.872 239.872 0 0 1 39.968 79.952c8.736 29.952 12.112 61.216 10 92.336a293.488 293.488 0 0 1-16 76.752 300.592 300.592 0 0 1-119.872 147.104 319.632 319.632 0 0 1-132.272 46.368 330.784 330.784 0 0 1-97.12 0 319.664 319.664 0 0 1-175.024-92.736 343.84 343.84 0 0 1-90.72-316.992 337.36 337.36 0 0 1 202.208-239.84 53.536 53.536 0 0 1 44.768 2.4 39.984 39.984 0 0 1 16.384 37.568 39.968 39.968 0 0 1-25.584 32.784A257.424 257.424 0 0 0 274.72 489.856a262.304 262.304 0 0 0 14.4 127.12 258.208 258.208 0 0 0 119.872 138.304 233.712 233.712 0 0 0 109.104 26.4 272.48 272.48 0 0 0 91.52-16.4 217.008 217.008 0 0 0 118.272-101.536c6.368-11.392 11.456-23.456 15.2-35.968a199.936 199.936 0 0 0 0-111.136 168.688 168.688 0 0 0-50.768-77.952 222.192 222.192 0 0 0-33.568-24.384 128.256 128.256 0 0 0-33.568-12.8c8 32 16.8 63.968 25.184 96.352l4 23.184a136.304 136.304 0 0 1-109.904 138.304 130.64 130.64 0 0 1-95.904-17.984 144.304 144.304 0 0 1-56.752-73.552 174.72 174.72 0 0 1-9.6-52.368 180.72 180.72 0 0 1 30.384-110.32 199.808 199.808 0 0 1 111.088-76.752l-9.6-37.184a110.352 110.352 0 0 1 6-79.952 115.52 115.52 0 0 1 28.784-36.368 117.488 117.488 0 0 1 42.752-26.384 119.84 119.84 0 0 1 61.936-0.8z" fill="#FFFFFF" p-id="5787"></path><path d="M489.44 448.8a94.08 94.08 0 0 0-23.2 44.768 121.856 121.856 0 0 0 0 46.384 69.344 69.344 0 0 0 25.952 43.184c11.504 8 25.76 10.736 39.36 7.584 24.784-4.912 43.104-26.336 44.448-51.968a146.016 146.016 0 0 0-3.536-18.4L545.312 416a125.056 125.056 0 0 0-55.872 32.8z" fill="#D81E06" p-id="5788"></path></svg>